<svg xmlns="http://www.w3.org/2000/svg" viewBox="0 0 276 148" width="1104" height="592" shape-rendering="crispEdges">
  <g fill="#FFFFFF">
    <rect x="0" y="0" width="276" height="10"/>
    <rect x="0" y="138" width="276" height="10"/>
    <rect x="0" y="10" width="10" height="128"/>
    <rect x="266" y="10" width="10" height="128"/>
  </g>

  <g transform="translate(10, 10)">
    <rect width="256" height="128" fill="#000000"/>

    <g fill="#555555">
      <g>
        <rect x="10" y="10" width="1" height="1"/><rect x="30" y="50" width="1" height="1"/>
        <rect x="60" y="20" width="1" height="1"/><rect x="90" y="80" width="1" height="1"/>
        <rect x="110" y="10" width="1" height="1"/><rect x="50" y="100" width="1" height="1"/>
        <rect x="140" y="30" width="1" height="1"/><rect x="180" y="60" width="1" height="1"/>
        <rect x="220" y="15" width="1" height="1"/><rect x="250" y="90" width="1" height="1"/>
        <rect x="160" y="110" width="1" height="1"/><rect x="200" y="40" width="1" height="1"/>
        <rect x="235" y="75" width="1" height="1"/><rect x="15" y="115" width="1" height="1"/>
        <rect x="125" y="5" width="1" height="1"/><rect x="195" y="120" width="1" height="1"/>
      </g>
      <g transform="translate(0, -128)">
         <rect x="10" y="10" width="1" height="1"/><rect x="30" y="50" width="1" height="1"/>
        <rect x="60" y="20" width="1" height="1"/><rect x="90" y="80" width="1" height="1"/>
        <rect x="110" y="10" width="1" height="1"/><rect x="50" y="100" width="1" height="1"/>
        <rect x="140" y="30" width="1" height="1"/><rect x="180" y="60" width="1" height="1"/>
        <rect x="220" y="15" width="1" height="1"/><rect x="250" y="90" width="1" height="1"/>
        <rect x="160" y="110" width="1" height="1"/><rect x="200" y="40" width="1" height="1"/>
        <rect x="235" y="75" width="1" height="1"/><rect x="15" y="115" width="1" height="1"/>
        <rect x="125" y="5" width="1" height="1"/><rect x="195" y="120" width="1" height="1"/>
      </g>
      <animateTransform attributeName="transform" type="translate" from="0 0" to="0 128" dur="6s" repeatCount="indefinite"/>
    </g>

    <g fill="#FFFFFF">
      <rect x="20" y="0" width="1" height="1"><animateTransform attributeName="transform" type="translate" from="0 0" to="0 128" dur="3s" repeatCount="indefinite"/></rect>
      <rect x="80" y="-40" width="1" height="1"><animateTransform attributeName="transform" type="translate" from="0 0" to="0 128" dur="2.5s" repeatCount="indefinite"/></rect>
      <rect x="150" y="-20" width="1" height="1"><animateTransform attributeName="transform" type="translate" from="0 0" to="0 128" dur="2s" repeatCount="indefinite"/></rect>
      <rect x="210" y="0" width="1" height="1"><animateTransform attributeName="transform" type="translate" from="0 0" to="0 128" dur="3.5s" repeatCount="indefinite"/></rect>
      <rect x="240" y="-60" width="1" height="1"><animateTransform attributeName="transform" type="translate" from="0 0" to="0 128" dur="1.8s" repeatCount="indefinite"/></rect>
      <rect x="5" y="-10" width="1" height="1"><animateTransform attributeName="transform" type="translate" from="0 0" to="0 128" dur="4s" repeatCount="indefinite"/></rect>
      <rect x="185" y="-30" width="1" height="1"><animateTransform attributeName="transform" type="translate" from="0 0" to="0 128" dur="2.2s" repeatCount="indefinite"/></rect>
    </g>

    <g fill="#FFFFFF">
      <g transform="translate(20, 15)"> <rect x="2" y="0" width="8" height="2"/><rect x="0" y="2" width="12" height="2"/><rect x="2" y="4" width="8" height="2"/><rect x="0" y="6" width="2" height="3"/><rect x="10" y="6" width="2" height="3"/></g>
      <g transform="translate(58, 15)"> <rect x="2" y="0" width="8" height="2"/><rect x="0" y="2" width="12" height="2"/><rect x="2" y="4" width="8" height="2"/><rect x="0" y="6" width="2" height="3"/><rect x="10" y="6" width="2" height="3"/></g>
      <g transform="translate(96, 15)"> <rect x="2" y="0" width="8" height="2"/><rect x="0" y="2" width="12" height="2"/><rect x="2" y="4" width="8" height="2"/><rect x="0" y="6" width="2" height="3"/><rect x="10" y="6" width="2" height="3"/></g>
      <g transform="translate(134, 15)"><rect x="2" y="0" width="8" height="2"/><rect x="0" y="2" width="12" height="2"/><rect x="2" y="4" width="8" height="2"/><rect x="0" y="6" width="2" height="3"/><rect x="10" y="6" width="2" height="3"/></g>
      <g transform="translate(172, 15)"><rect x="2" y="0" width="8" height="2"/><rect x="0" y="2" width="12" height="2"/><rect x="2" y="4" width="8" height="2"/><rect x="0" y="6" width="2" height="3"/><rect x="10" y="6" width="2" height="3"/></g>
      <g transform="translate(210, 15)"><rect x="2" y="0" width="8" height="2"/><rect x="0" y="2" width="12" height="2"/><rect x="2" y="4" width="8" height="2"/><rect x="0" y="6" width="2" height="3"/><rect x="10" y="6" width="2" height="3"/></g>
    </g>

    <g id="roket-grubu">
      <animateTransform 
        attributeName="transform" 
        type="translate" 
        values="20,105; 220,105; 20,105" 
        dur="5s" 
        repeatCount="indefinite" />

      <g fill="#FFFFFF">
        <rect x="3" y="0" width="2" height="2" /> <rect x="2" y="2" width="4" height="2" />
        <rect x="1" y="4" width="6" height="8" /> <rect x="0" y="8" width="1" height="5" /> <rect x="7" y="8" width="1" height="5" /> <rect x="3" y="13" width="2" height="3">
           <animate attributeName="height" values="3;1;4;2" dur="0.1s" repeatCount="indefinite"/>
        </rect>
      </g>

      <rect x="3" y="-5" width="2" height="4" fill="#FFFFFF">
        <animate attributeName="y" from="0" to="-120" dur="0.5s" repeatCount="indefinite" />
        <animate attributeName="opacity" values="1;1;0" keyTimes="0;0.8;1" dur="0.5s" repeatCount="indefinite"/>
      </rect>
    </g>
  </g>
</svg>
